<svg width="129" height="128" viewBox="0 0 129 128" fill="none" xmlns="http://www.w3.org/2000/svg">
<circle cx="64.8809" cy="64.0001" r="64" fill="#F8FCFF"/>
<g clip-path="url(#clip0_2543_14353)">
<path d="M53.5262 86.3653V92.5765C53.5262 94.3408 52.6508 95.2822 51.06 95.2822C49.4603 95.2822 48.5796 94.3137 48.5796 92.5012V86.3721H46.3787V92.5765C46.3787 95.6294 48.0744 97.3788 51.031 97.3788C54.0155 97.3788 55.7271 95.5958 55.7271 92.487V86.3653H53.5262ZM61.6236 86.3653L56.8435 97.2097H59.0901L60.0127 95.1094L60.0788 94.952H65.0446L66.0185 97.2096H68.3261L63.5905 86.4295L63.548 86.3652L61.6236 86.3653ZM74.7095 86.3653L72.2464 93.8269L69.8487 86.3708H67.5065L71.2873 97.2164H73.1098L75.5779 90.0918L78.0441 97.2164H79.8821L83.6536 86.3708H81.3713L78.9687 93.8269L76.5049 86.3653H74.7095ZM96.2471 86.3653V97.2004H98.4189V86.3653H96.2471ZM33.9531 86.3659V97.2158H36.1546V92.8092H41.1253V97.2158H43.3274V86.3659H41.1253V90.7429H36.1546V86.3659H33.9531ZM85.4286 86.3732V97.2084H93.6223V95.2328H87.6005V92.5463H91.6047V90.5701H87.6005V88.3489H93.4124V86.3732H85.4286ZM62.5561 89.111L64.1256 92.7437H64.1201L64.2269 92.9943H60.8972L61.0027 92.7437L62.5561 89.111Z" fill="#232527"/>
<path d="M61.3656 30.9162C60.4924 30.9934 58.1327 31.5305 58.1327 31.5305C52.8141 32.9052 51.556 37.7318 51.556 37.7318C51.2963 38.5434 51.1783 39.3751 51.1436 40.1588V41.2253C51.2142 42.8732 51.5807 44.1037 51.5807 44.1037C53.3573 51.9814 62.0926 64.9257 63.9699 67.6449C64.1031 67.777 64.2098 67.7293 64.2098 67.7293C64.4124 67.6733 64.3965 67.479 64.3965 67.479L64.4004 67.48C67.292 38.5773 61.3656 30.9162 61.3656 30.9162ZM70.9202 30.9162C70.9202 30.9162 64.9679 38.5814 67.8617 67.5008H67.8656C67.888 67.6844 68.0182 67.7226 68.0182 67.7226C68.2119 67.7977 68.3112 67.6116 68.3112 67.6116L68.3121 67.6135C70.2377 64.8249 78.9231 51.951 80.6919 44.1035C80.6919 44.1035 81.6509 40.3053 80.7251 37.7316C80.7251 37.7316 79.4103 32.8303 74.0849 31.5351C74.0849 31.5351 72.5501 31.1456 70.9202 30.9162ZM43.4653 39.5928C43.4653 39.5928 38.3977 44.4027 38.1458 49.5019H38.1478V50.2746C38.1516 50.3327 38.1546 50.3916 38.1583 50.4509C38.3766 54.5627 41.4698 56.9963 41.4698 56.9963C46.4537 61.8537 58.5217 67.9864 61.326 69.3779C61.3652 69.3926 61.5101 69.4399 61.5952 69.3324C61.5952 69.3324 61.6395 69.2988 61.6597 69.2385V69.1104C61.6577 69.1031 61.6538 69.0957 61.6501 69.0877C53.9705 52.3112 43.4653 39.5928 43.4653 39.5928ZM88.8081 39.5928C88.8081 39.5928 78.3338 52.2714 70.6576 69.0139L70.6605 69.0129C70.6605 69.0129 70.5698 69.207 70.7164 69.3324C70.7164 69.3324 70.7602 69.3654 70.8207 69.3788H70.9269C70.946 69.3733 70.9664 69.366 70.9866 69.3522C73.867 67.9227 85.8416 61.8321 90.802 56.9971C90.802 56.9971 93.9433 54.4745 94.1079 50.4242C94.4706 44.7988 88.8081 39.5928 88.8081 39.5928ZM98.2356 56.2483C98.2356 56.2483 81.1592 65.4123 72.3299 71.3679L72.3329 71.3707C72.3329 71.3707 72.1727 71.4757 72.2286 71.6637C72.2286 71.6637 72.3124 71.8154 72.4343 71.8154C75.5969 71.8209 87.564 71.8353 87.864 71.7793C87.864 71.7793 89.4114 71.7175 91.3235 70.983C91.3235 70.983 95.5801 69.6297 97.7911 64.7969C97.7911 64.7969 98.8014 62.7761 98.816 59.9371V59.8168C98.8086 58.7219 98.6543 57.5099 98.2356 56.2483ZM34.0331 56.291C32.4794 61.1009 34.5711 64.9766 34.5744 64.9828C36.7542 69.5885 40.9151 70.984 40.9151 70.984C42.8361 71.7733 44.7575 71.8278 44.7575 71.8278C45.0576 71.8827 56.7058 71.8333 59.8269 71.8186C59.959 71.8177 60.0317 71.6849 60.0317 71.6849C60.0409 71.6702 60.049 71.6555 60.0526 71.6421V71.5218C60.0267 71.4412 59.9578 71.3844 59.9578 71.3844L59.9598 71.3834C51.1349 65.4298 34.0331 56.291 34.0331 56.291ZM59.4705 73.2973L39.382 74.0017C41.5605 77.8852 45.2294 80.9033 49.0513 79.9764C51.6888 79.317 57.6639 75.1493 59.6364 73.741L59.6298 73.7355C59.7831 73.5977 59.7283 73.4871 59.7283 73.4871C59.6779 73.3068 59.4705 73.3069 59.4705 73.3069L59.4705 73.2973ZM72.7755 73.312L72.7735 73.3193C72.7735 73.3193 72.5971 73.3417 72.5479 73.4738C72.5479 73.4738 72.505 73.6543 72.6237 73.744L72.6217 73.7458C74.5449 75.125 80.3752 79.2011 83.184 79.9926C83.184 79.9926 83.6095 80.1373 84.3226 80.1632H84.7511C86.633 80.0971 89.9113 79.1304 92.8902 74.0121L72.7755 73.312Z" fill="#CF0A2C"/>
</g>
<defs>
<clipPath id="clip0_2543_14353">
<rect width="65.3578" height="66.4622" fill="white" transform="translate(33.457 30.915)"/>
</clipPath>
</defs>
</svg>
