<svg width="129" height="128" viewBox="0 0 129 128" fill="none" xmlns="http://www.w3.org/2000/svg">
<circle cx="64.4414" cy="64" r="64" fill="#F8FCFF"/>
<g clip-path="url(#clip0_2543_14340)">
<path d="M121.042 54.7407C122.571 63.5008 98.7232 74.973 67.7708 80.3639C36.8221 85.7548 10.4938 83.0193 8.96766 74.2555C7.44273 65.4942 31.2968 54.0257 62.2455 48.6361C93.1954 43.2427 119.519 45.9782 121.042 54.7407Z" fill="#034EA2"/>
<path d="M91.9122 67.7449L91.7531 58.636H94.6255V70.1168H90.4957L87.6295 60.6947H87.5679L87.7269 70.1168H84.873V58.636H89.1816L91.8481 67.7449H91.9122Z" fill="white"/>
<path d="M39.702 59.711L38.1129 70.2376H34.9805L37.1317 58.636H42.292L44.4334 70.2376H41.3132L39.7673 59.711H39.702Z" fill="white"/>
<path d="M51.7297 70.2376L49.7893 59.8071H49.7264L49.6537 70.2376H46.748L47.0045 58.636H51.7383L53.1708 67.5045H53.2324L54.6661 58.636H59.3975L59.649 70.2376H56.7495L56.6731 59.8071H56.6127L54.6735 70.2376H51.7297Z" fill="white"/>
<path d="M30.0942 66.9649C30.2077 67.246 30.1731 67.6072 30.1201 67.8254C30.0227 68.2112 29.7614 68.6045 28.9897 68.6045C28.2623 68.6045 27.821 68.1878 27.821 67.5505V66.4274H24.7095L24.707 67.3261C24.707 69.9124 26.7436 70.6928 28.9256 70.6928C31.0237 70.6928 32.7521 69.9753 33.027 68.0423C33.1675 67.0401 33.0627 66.3843 33.0147 66.1365C32.5253 63.7079 28.1218 62.983 27.7939 61.6245C27.7384 61.3915 27.7544 61.145 27.7816 61.0131C27.8617 60.6432 28.1156 60.2352 28.8417 60.2352C29.5198 60.2352 29.9204 60.6543 29.9204 61.288C29.9204 61.5013 29.9204 62.0042 29.9204 62.0042H32.8137V61.1894C32.8137 58.6622 30.5454 58.2677 28.9021 58.2677C26.8385 58.2677 25.1521 58.9494 24.8439 60.838C24.76 61.3595 24.7477 61.8242 24.8698 62.4061C25.3764 64.7767 29.4976 65.4634 30.0942 66.9649Z" fill="white"/>
<path d="M67.8198 66.9433C67.9345 67.2219 67.8975 67.5733 67.8457 67.7915C67.7508 68.1761 67.4919 68.5632 66.7251 68.5632C66.0076 68.5632 65.57 68.1465 65.57 67.5239L65.5675 66.4108H62.4881L62.4844 67.2971C62.4844 69.8576 64.5024 70.6305 66.6622 70.6305C68.7382 70.6305 70.4505 69.9229 70.7205 68.0072C70.861 67.0123 70.7612 66.3651 70.7107 66.1223C70.2237 63.7159 65.8646 62.9984 65.5404 61.6535C65.4849 61.4217 65.501 61.1776 65.5293 61.0531C65.6119 60.6808 65.8609 60.2827 66.5796 60.2827C67.2515 60.2827 67.6435 60.6919 67.6435 61.3206C67.6435 61.5314 67.6435 62.0295 67.6435 62.0295H70.5146V61.2233C70.5146 58.7232 68.2648 58.3312 66.6376 58.3312C64.5973 58.3312 62.9245 59.0043 62.6224 60.8793C62.5386 61.3934 62.53 61.8495 62.6496 62.4289C63.1488 64.7749 67.2293 65.4566 67.8198 66.9433Z" fill="white"/>
<path d="M77.5642 68.5027C78.3692 68.5027 78.6207 67.9455 78.6762 67.6608C78.6996 67.535 78.7058 67.3674 78.7033 67.217V58.632H81.6373V66.9544C81.6434 67.1677 81.6225 67.6065 81.6126 67.7162C81.4068 69.8822 79.6944 70.5849 77.563 70.5849C75.4291 70.5849 73.7155 69.8822 73.5121 67.7162C73.5022 67.6065 73.4813 67.1677 73.4874 66.9544V58.632H76.419V67.217C76.419 67.3674 76.4239 67.5363 76.4461 67.6608C76.509 67.9455 76.7531 68.5027 77.5642 68.5027Z" fill="white"/>
<path d="M101.766 68.3804C102.606 68.3804 102.9 67.849 102.954 67.5396C102.975 67.4065 102.981 67.245 102.98 67.0983V65.4143H101.789V63.7205H105.903V66.8345C105.9 67.0514 105.895 67.2117 105.861 67.5988C105.667 69.7093 103.837 70.4625 101.78 70.4625C99.7204 70.4625 97.8922 69.7093 97.6962 67.5988C97.6629 67.2117 97.658 67.0514 97.6543 66.8345L97.6568 61.949C97.6568 61.7431 97.6827 61.3782 97.7048 61.1847C97.9625 59.0162 99.7204 58.3185 101.78 58.3185C103.838 58.3185 105.639 59.0125 105.852 61.1847C105.89 61.5545 105.878 61.949 105.878 61.949V62.3361H102.953V61.6864C102.955 61.6876 102.949 61.4103 102.915 61.2451C102.865 60.9887 102.642 60.3994 101.758 60.3994C100.913 60.3994 100.665 60.9566 100.603 61.2451C100.567 61.3979 100.554 61.605 100.554 61.7924V67.0983C100.551 67.245 100.56 67.4065 100.583 67.5396C100.634 67.8503 100.926 68.3804 101.766 68.3804Z" fill="white"/>
</g>
<defs>
<clipPath id="clip0_2543_14340">
<rect width="112.214" height="37.2578" fill="white" transform="translate(8.89648 45.8701)"/>
</clipPath>
</defs>
</svg>
