<svg width="76" height="93" viewBox="0 0 76 93" fill="none" xmlns="http://www.w3.org/2000/svg">
<path d="M63.3435 37.9231C62.9576 38.2225 56.1453 42.061 56.1453 50.5964C56.1453 60.4689 64.8137 63.9615 65.0732 64.048C65.0332 64.2609 63.6961 68.8312 60.5028 73.4881C57.6555 77.5861 54.6817 81.6775 50.158 81.6775C45.6342 81.6775 44.4699 79.0497 39.2476 79.0497C34.1584 79.0497 32.3488 81.7639 28.2109 81.7639C24.073 81.7639 21.1857 77.972 17.8661 73.3151C14.0208 67.8466 10.9141 59.3512 10.9141 51.2882C10.9141 38.3555 19.323 31.4966 27.5989 31.4966C31.9963 31.4966 35.6619 34.3839 38.4227 34.3839C41.0505 34.3839 45.1485 31.3237 50.1513 31.3237C52.0473 31.3237 58.8596 31.4966 63.3435 37.9231ZM47.7763 25.8486C49.8453 23.3937 51.3089 19.9876 51.3089 16.5814C51.3089 16.1091 51.2689 15.6301 51.1825 15.2443C47.8162 15.3707 43.8113 17.4862 41.3964 20.287C39.5004 22.4424 37.7308 25.8486 37.7308 29.3013C37.7308 29.8202 37.8173 30.3391 37.8572 30.5054C38.0701 30.5453 38.4161 30.5919 38.762 30.5919C41.7823 30.5919 45.5809 28.5695 47.7763 25.8486Z" fill="black"/>
</svg>
