<svg
   xmlns="http://www.w3.org/2000/svg"
   width="411.47999267578126" height="138.1238847278213" viewBox="0 0 15 5.0351373281709115"
   class="css-1j8o68f">
   <defs id="SvgjsDefs1729"></defs>
   <g id="SvgjsG1730" featurekey="nameFeature-0"
      transform="matrix(0.1348312202634163,0,0,0.1348312202634163,-0.8216344349039274,-0.179055869767942)"
      fill="#00bffb">
      <path
         d="M6.0938 1.4059999999999988 l27.813 0 l0 5.9375 l-27.813 0 l0 -5.9375 z M6.0938 16.875 l5.9375 0 l0 21.719 l-5.9375 0 l0 -21.719 z M6.0938 16.875 l25.078 0 l0 5.8594 l-25.078 0 l0 -5.8594 z M63.281 16.875 l0 -15.547 l-6.5625 0 l0 37.344 l6.5625 0 l0 -21.797 z M96.48400000000001 29.375 l3.5156 -4.6875 l-0.078125 -0.15625 z M116.875 1.4059999999999988 l-7.5 0 l-9.2969 13.359 l-9.2188 -13.359 l-7.7344 0 l13.047 18.281 l-13.516 18.906 l8.3594 0 z M117.344 38.5937 l-10.313 -14.609 l-3.9063 5.2344 l6.5625 9.375 l7.6563 0 z"></path>
   </g>
</svg>