<?xml version="1.0" encoding="UTF-8" standalone="no"?>
<!-- Created with Inkscape (http://www.inkscape.org/) -->

<svg
   version="1.1"
   id="svg2"
   width="5330.0669"
   height="5327.1201"
   viewBox="0 0 5330.0669 5327.1201"
   sodipodi:docname="9600_5_06.eps"
   xmlns:inkscape="http://www.inkscape.org/namespaces/inkscape"
   xmlns:sodipodi="http://sodipodi.sourceforge.net/DTD/sodipodi-0.dtd"
   xmlns="http://www.w3.org/2000/svg"
   xmlns:svg="http://www.w3.org/2000/svg">
  <defs
     id="defs6">
    <clipPath
       clipPathUnits="userSpaceOnUse"
       id="clipPath172">
      <path
         d="m 12197.9,32930.5 c 63.4,380.9 149.1,729.6 259.7,1026 -110,-295.8 -195.9,-643.2 -259.1,-1023 -0.2,-1 -0.4,-2 -0.6,-3"
         id="path170" />
    </clipPath>
  </defs>
  <sodipodi:namedview
     id="namedview4"
     pagecolor="#ffffff"
     bordercolor="#000000"
     borderopacity="0.25"
     inkscape:showpageshadow="2"
     inkscape:pageopacity="0.0"
     inkscape:pagecheckerboard="0"
     inkscape:deskcolor="#d1d1d1" />
  <g
     id="g8"
     inkscape:groupmode="layer"
     inkscape:label="ink_ext_XXXXXX"
     transform="matrix(1.3333333,0,0,-1.3333333,0,5327.12)">
    <g
       id="g10"
       transform="scale(0.1)">
      
      <path
         d="m 28603,31202.9 c -211,597.7 356.9,1563.4 1127,1872.8 1191.7,478.8 2514.7,-213 2830.3,-1160.3 358.4,-1076 -148.7,-1738.8 -781.3,-2369.5 -1164.6,-1161.2 -345.1,-2557.2 -934.5,-2717.5 -642.8,-174.8 -1046.2,1432.1 -711.1,2398.3 308.3,888.7 1151.4,1431.1 1058.3,1999.3 -57.2,348.8 -349.4,516.6 -682.9,529.4 -646.6,25 -939.8,-566.5 -1174.9,-759.8 -246.2,-202.4 -607.1,-143.4 -730.9,207.3"
         style="fill:#ffffff;fill-opacity:1;fill-rule:nonzero;stroke:none"
         id="path14" />
      <path
         d="m 31778.9,29545.9 c -1164.5,-1161.1 -344.8,-2557.3 -934.4,-2717.6 -642.7,-174.7 -1046,1432.1 -711.2,2398.3 142.6,411.4 400.3,749 626.3,1049 l 0.4,0.3 c 261.8,347.7 481.5,645.4 431.6,950.2 -57,348.8 -349.3,516.5 -683,529.2 -646.5,25.3 -939.5,-566.4 -1174.5,-759.8 -246.2,-202.4 -607.4,-143.1 -731.1,207.5 -16.3,47 -28.3,96.2 -35.3,147.2 -85.3,598.1 452.8,1440.2 1162.2,1725.7 1191.7,478.4 2514.9,-213.2 2830.3,-1160.4 358.6,-1076.2 -148.6,-1738.7 -781.3,-2369.6"
         style="fill:#ffffff;fill-opacity:1;fill-rule:nonzero;stroke:none"
         id="path16" />
      <path
         d="m 31778.9,29545.9 c -563.4,-561.9 -662.5,-1179 -681.1,-1684.6 v -1.1 c -20.1,-538.1 50.6,-949.1 -253.3,-1031.9 -326.2,-88.6 -591,282.1 -728.8,794.9 -133.3,497 -147.1,1127.9 17.6,1603.4 142.6,411.4 400.3,749 626.3,1049 l 0.4,0.3 c 261.8,347.7 481.5,645.4 431.6,950.2 -57,348.8 -349.3,516.5 -683,529.2 -646.5,25.3 -939.5,-566.4 -1174.5,-759.8 -246.2,-202.4 -607.4,-143.1 -731.1,207.5 -16.3,47 -28.3,96.2 -35.3,147.2 -85.3,598.1 452.8,1440.2 1162.2,1725.7 1191.7,478.4 2514.9,-213.2 2830.3,-1160.4 358.6,-1076.2 -148.6,-1738.7 -781.3,-2369.6"
         style="fill:#33b6ff;fill-opacity:1;fill-rule:nonzero;stroke:none"
         id="path18" />
      <path
         d="m 32604.6,30736.3 c 0,0.1 0,0.3 0.1,0.5 47.9,155.6 74.6,320.8 74.6,498.5 -0.1,107.6 -9.9,219.8 -30.8,337.2 -19.4,109.6 -48.5,223.7 -88.2,342.9 -17,51 -36.9,101.2 -59.5,150.5 -109.9,239.6 -284.4,458.4 -503.1,640.1 -0.2,0.2 -0.3,0.2 -0.5,0.4 -0.1,0.1 -0.2,0.2 -0.3,0.3 -385.8,320.1 -909,524.9 -1458.6,524.9 -10.5,0 -21,-0.1 -31.6,-0.3 -257.4,-3.6 -520.2,-52.4 -776.8,-155.4 -155.4,-62.6 -302.7,-151.9 -436.9,-259.4 -0.3,-0.3 -0.5,-0.5 -0.8,-0.7 -0.2,-0.2 -0.5,-0.4 -0.7,-0.5 -134.6,-108.1 -256.1,-234.6 -359.8,-370.9 207.3,272.8 486.2,506.1 798.3,631.6 267,107.2 540.7,155.7 808.1,155.7 926,0 1777.4,-581.1 2022.2,-1316.1 152.7,-458.3 148.6,-841.7 44.3,-1179.3 m -3679.2,1699.6 c 0,0 0.1,0.1 0.1,0.2 0,-0.1 -0.1,-0.2 -0.1,-0.2 m 1.1,1.5 c 0.2,0.2 0.3,0.4 0.5,0.7 -0.2,-0.2 -0.4,-0.5 -0.5,-0.7 m 1.2,1.6 c 0.3,0.4 0.5,0.7 0.8,1.1 -0.2,-0.3 -0.5,-0.7 -0.8,-1.1 m 1.3,1.8 c 0.4,0.5 0.8,1 1.2,1.5 -0.4,-0.5 -0.8,-1 -1.2,-1.5 m 1.3,1.6 c 0.5,0.7 0.9,1.3 1.4,1.9 -0.4,-0.6 -0.9,-1.2 -1.4,-1.9"
         style="fill:#fef3e1;fill-opacity:1;fill-rule:nonzero;stroke:none"
         id="path20" />
      <path
         d="m 32648.5,31572.5 c -19.5,109.6 -48.6,223.8 -88.3,343 -17,50.9 -36.8,101.1 -59.4,150.4 22.6,-49.3 42.5,-99.5 59.5,-150.5 39.7,-119.2 68.8,-233.3 88.2,-342.9 m -3932,523.1 c 56.7,116.7 127.1,231.6 208.9,340.3 0,0 0.1,0.1 0.1,0.2 0.3,0.4 0.6,0.9 1,1.3 0.1,0.2 0.3,0.5 0.5,0.7 0.2,0.3 0.5,0.6 0.7,0.9 0.3,0.4 0.6,0.8 0.8,1.1 0.2,0.2 0.4,0.5 0.5,0.7 0.4,0.5 0.8,1 1.2,1.5 0,0 0.1,0.1 0.1,0.1 0.5,0.7 1,1.3 1.4,1.9 v 0.1 c 103.7,136.3 225.2,262.8 359.8,370.9 -244.4,-196.3 -445.6,-453.2 -575,-719.7 m 3281.2,610.4 c -0.1,0.1 -0.3,0.3 -0.5,0.4 0.2,-0.2 0.3,-0.2 0.5,-0.4 m -0.8,0.7 c -385.8,320.1 -909.2,524.9 -1458.9,524.9 -10.4,0 -20.9,-0.1 -31.3,-0.3 10.6,0.2 21.1,0.3 31.6,0.3 549.6,0 1072.8,-204.8 1458.6,-524.9 m -2704.7,109.1 c 0.3,0.2 0.5,0.4 0.8,0.7 -0.3,-0.3 -0.5,-0.5 -0.8,-0.7"
         style="fill:#ffffff;fill-opacity:1;fill-rule:nonzero;stroke:none"
         id="path22" />
      <path
         d="m 32604.7,30736.8 c 41.2,269.6 17.3,569.8 -96.9,913.2 -187,562.3 -739.6,1031.8 -1405.1,1206.9 14.1,-21.6 21.6,-44.3 21.6,-67.8 0,-137.5 -253.2,-248.6 -565.7,-248.6 -312.4,0 -565.7,111.1 -565.7,248.6 0,26.8 9.7,52.5 27.6,76.7 -89.4,-22.7 -178.4,-51.4 -266.7,-86.8 -662.8,-267.1 -1172.3,-1033.7 -1137.7,-1609.4 -4.8,10.8 -8.9,22 -13,33.6 -16.4,46.9 -28.3,96.1 -35.4,147.2 -32.4,227.7 25.5,490.9 148.8,745.2 200.6,413.5 574.2,803.6 1013.4,980.3 267,107.2 540.7,155.7 808.1,155.7 926,0 1777.4,-581.1 2022.2,-1316.1 82.3,-247 119,-472.2 119.1,-680.2 0,-177.7 -26.7,-342.9 -74.6,-498.5"
         style="fill:#85d3ff;fill-opacity:1;fill-rule:nonzero;stroke:none"
         id="path24" />
      <path
         d="m 31097.8,27860.1 c -20.1,-538 50.6,-949 -253.3,-1031.8 -326.2,-88.7 -591,282.1 -728.8,794.9 139.7,-168.8 336.3,-332.4 563.9,-308.2 215.6,22.7 343.3,280.2 418.2,545.1"
         style="fill:#3395ff;fill-opacity:1;fill-rule:nonzero;stroke:none"
         id="path26" />
      <path
         d="m 30760,30275.9 c 261.8,347.7 481.5,645.4 431.6,950.2 -57,348.8 -349.3,516.5 -683,529.2 -646.5,25.3 -939.5,-566.4 -1174.5,-759.8 -246.2,-202.4 -607.4,-143.1 -731.1,207.5 -16.3,47 -28.3,96.2 -35.3,147.2 179.5,-159.8 449.8,-317.8 673.3,-101 305.3,296.7 677.7,1060.6 1377.9,1029.6 706.8,-31.3 1306.4,-912.9 141.1,-2002.9"
         style="fill:#3395ff;fill-opacity:1;fill-rule:nonzero;stroke:none"
         id="path28" />
      <path
         d="m 30469.2,31896 c 14.9,0 29.8,-0.3 45,-0.9 440.3,-17.1 752.7,-264.8 815.3,-646.4 60.5,-369.1 -185.9,-695.9 -471.1,-1074.3 -215.7,-286.2 -460.2,-610.5 -593,-993.5 -248.3,-715.7 -59.4,-1759.2 269.4,-2111.6 134.2,-143.8 238.8,-115.5 273,-106 129.8,35.3 143.5,201.8 145.4,601.8 2.6,542 6.5,1361.1 727.3,2079.8 588.9,587.3 1089.4,1199.5 747.3,2226.3 -139,417.2 -506.2,797.9 -982.3,1018.5 -532.3,246.6 -1138.8,267.3 -1663.5,56.4 -687.2,-276.2 -1235.3,-1164.1 -1047.3,-1696.7 40.5,-114.7 115.9,-192.6 212.2,-219.5 97.7,-27.3 209.1,0.3 298.3,73.6 47.9,39.3 104,104.7 168.9,180.3 210.5,245.1 525.8,612.2 1055.1,612.2 z m 277.6,-5220.7 c -122.2,0 -269.5,46.1 -416.2,203.3 -434.5,465.7 -594.4,1629.1 -329.1,2393.9 147.2,424.6 405.8,767.6 633.9,1070.2 246.6,327.1 459.6,609.7 418.5,860.7 -58.2,355.3 -404.4,406.8 -550.5,412.4 -422.5,16.2 -674.5,-277.8 -877.4,-514.1 -73.5,-85.5 -136.9,-159.3 -203.4,-214.1 -159.6,-131.1 -365.3,-178.5 -550.7,-126.9 -186.6,52 -328.8,192.5 -400.5,395.6 -239.6,678.6 369.3,1712.7 1206.6,2049.1 595.8,239.4 1282.8,216.8 1884.9,-62.1 552.7,-256.1 964.5,-687.5 1129.9,-1183.7 392.2,-1177.5 -215.1,-1914.4 -815.2,-2512.7 -639.2,-637.3 -642.6,-1357.3 -645.1,-1883.1 -2,-416.2 -3.6,-775.7 -351.4,-870.2 -39.6,-10.8 -84.9,-18.3 -134.3,-18.3"
         style="fill:#000072;fill-opacity:1;fill-rule:nonzero;stroke:none"
         id="path30" />
      <path
         d="m 31014.1,26259.9 c -265.1,-62 -424.7,-381 -399.6,-620.3 39.4,-375.7 351.8,-579.3 707,-487 232.5,60.4 442.3,318.7 405.1,586.5 -37.8,271.4 -354.9,604.4 -712.5,520.8"
         style="fill:#33b6ff;fill-opacity:1;fill-rule:nonzero;stroke:none"
         id="path32" />
      <path
         d="m 31659.1,25419.9 c 0,0.1 0,0.2 0,0.3 17.7,30.5 32.5,62.7 44.1,96 -11.6,-33.4 -26.4,-65.7 -44.1,-96.3 m -1015.3,460.7 c 46.6,141.8 142.1,275.3 273.2,343.2 -131,-67.9 -226.6,-201.4 -273.2,-343.2 m 977,110.6 c -106.4,151.3 -280.5,275 -477.3,281.5 196.8,-6.4 370.9,-130.2 477.3,-281.5"
         style="fill:#fef3e1;fill-opacity:1;fill-rule:nonzero;stroke:none"
         id="path34" />
      <path
         d="m 30690.1,25395 c -39.5,69.6 -66,152 -75.6,244.8 -7.9,75.8 2.7,159.7 29.3,240.8 46.6,141.8 142.2,275.3 273.2,343.2 30.5,15.8 62.9,28.1 97,36 38.3,9 76.2,13.2 113.3,13.2 5.4,0 10.8,-0.1 16.2,-0.3 196.8,-6.5 370.9,-130.2 477.3,-281.5 56.7,-80.7 94.2,-169.2 105.7,-251.9 10.6,-76.7 1.1,-152.5 -23.3,-223.1 -11.6,-33.3 -26.4,-65.5 -44.1,-96 7.8,42.8 9.6,87 3.3,131.3 -29.9,214.2 -256.7,472.2 -530,472.2 -32.8,0 -66.2,-3.7 -100.1,-11.7 -234.6,-54.7 -375.8,-336.8 -353.4,-548.5 2.6,-23.8 6.3,-46.6 11.2,-68.5"
         style="fill:#85d3ff;fill-opacity:1;fill-rule:nonzero;stroke:none"
         id="path36" />
      <path
         d="m 31321.6,25152.6 c -355.3,-92.4 -667.7,111.4 -707.2,487 -6.7,64.5 0,134.6 18.2,203.9 64.5,-291.8 327,-443.8 622.7,-367.1 205.6,53.3 391.4,279.1 364.6,515.7 57.3,-80.8 94.9,-169.9 106.5,-253 37.2,-267.9 -172.4,-526.1 -404.8,-586.5"
         style="fill:#3395ff;fill-opacity:1;fill-rule:nonzero;stroke:none"
         id="path38" />
      <path
         d="m 31127.1,26133.3 c -26,0 -53.2,-2.9 -81.3,-9.5 -187.8,-43.9 -311.4,-288.5 -292.5,-469.6 14.4,-137 75.2,-249 171.3,-315.7 98,-67.8 226.3,-85.9 361.8,-50.6 164.9,42.8 329,236.6 301.8,432 -16.4,118.6 -107.4,253.2 -226.3,334.9 -55.9,38.3 -137.6,78.5 -234.8,78.5 z m 25.8,-1142.7 c -141.5,0 -274.6,40 -387.4,118.3 -164,113.7 -266.9,297 -289.9,516.1 -31.6,301.3 168.7,692 506.7,771 181,42.2 372,3 537.6,-110.8 182.5,-125.3 317.9,-332.1 345,-526.8 48.9,-351.6 -223.4,-667 -508.4,-741.1 -68.8,-17.8 -137.1,-26.7 -203.6,-26.7"
         style="fill:#000072;fill-opacity:1;fill-rule:nonzero;stroke:none"
         id="path40" />
      <path
         d="m 21170.7,10145.8 c 339.2,-285.5 2853.3,-1723.8 4996,-382.4 3122.4,2050.6 -221.9,6345.7 526,8223.7 433.6,1088.6 1519.7,987.9 2269.4,575.9 794.2,-436.4 1354.4,-206.7 1584.8,91.7 599.6,874.7 -462,2427.6 -2315.5,2527.3 -1482.4,79.7 -2497.7,-746.1 -2978.1,-2021.7 -1043.4,-2771.1 1932,-6362.4 357.1,-7910.1 -804,-790.1 -2383.2,-538.7 -3152.4,21.5 l -1287.3,-1125.9"
         style="fill:#ffffff;fill-opacity:1;fill-rule:nonzero;stroke:none"
         id="path42" />
      <path
         d="m 30546.9,18654.7 c -230.3,-298.2 -790.8,-528.2 -1584.9,-91.7 -474.1,260.7 -1083.1,396.8 -1576.2,185.7 -286.3,-122.4 -533.6,-361.5 -693,-761.7 -747.9,-1878 2596.4,-6172.8 -526,-8223.6 -2142.7,-1341.4 -4656.9,97 -4996.2,382.3 l 1287.5,1125.8 c 769.2,-560 2348.4,-811.3 3152.4,-21.2 1574.6,1547.6 -1400.5,5138.8 -357.1,7909.9 195.8,520.3 480.5,965.6 849.8,1305.1 536.2,493.4 1250.4,763.9 2128.3,716.5 1853.4,-99.6 2914.9,-1652.5 2315.4,-2527.1"
         style="fill:#ffffff;fill-opacity:1;fill-rule:nonzero;stroke:none"
         id="path44" />
      <path
         d="m 30546.9,18654.7 c -230.3,-298.2 -790.8,-528.2 -1584.9,-91.7 -474.1,260.7 -1083.1,396.8 -1576.2,185.7 -286.3,-122.4 -533.6,-361.5 -693,-761.7 -747.9,-1878 2596.4,-6172.8 -526,-8223.6 -2142.7,-1341.4 -4656.9,97 -4996.2,382.3 l 1287.5,1125.8 c 769.2,-560 2348.4,-811.3 3152.4,-21.2 1574.6,1547.6 -1400.5,5138.8 -357.1,7909.9 195.8,520.3 480.5,965.6 849.8,1305.1 536.2,493.4 1250.4,763.9 2128.3,716.5 1853.4,-99.6 2914.9,-1652.5 2315.4,-2527.1"
         style="fill:#ffffff;fill-opacity:1;fill-rule:nonzero;stroke:none"
         id="path46" />
      <path
         d="m 30714.6,19202.7 c -1.5,-197.1 -55.6,-384.6 -167.7,-548 -230.3,-298.2 -790.8,-528.2 -1584.9,-91.7 -474.1,260.7 -1083.1,396.8 -1576.2,185.7 -286.3,-122.4 -533.6,-361.5 -693,-761.7 -108.3,-272 -130.6,-594.5 -99.6,-953.7 -8.3,46.6 -339.3,1899.6 691.1,2316.4 563,227.4 1090,-23 1587.4,-273.5 661.9,-333.4 1271.2,-666.7 1842.9,126.5"
         style="fill:#efefef;fill-opacity:1;fill-rule:nonzero;stroke:none"
         id="path48" />
      <path
         d="m 30714.6,19202.7 c -1.5,-197.1 -55.6,-384.6 -167.7,-548 -230.3,-298.2 -790.8,-528.2 -1584.9,-91.7 -474.1,260.7 -1083.1,396.8 -1576.2,185.7 -59,156.5 5.3,337.6 -43.9,505.9 -10.6,36.4 -31,67.4 -57.6,95.1 563,227.4 1090,-23 1587.4,-273.5 661.9,-333.4 1271.2,-666.7 1842.9,126.5"
         style="fill:#ff9343;fill-opacity:1;fill-rule:nonzero;stroke:none"
         id="path50" />
      <path
         d="m 26166.8,9763.4 c -2142.7,-1341.4 -4656.9,97 -4996.2,382.3 l 1287.6,1125.8 c 272.2,-198.1 646,-357.7 1050.9,-446 267.3,-429.7 817.6,-828.7 1950.7,-677.9 1496.2,199.3 1947.3,1909.1 1978.7,3190.3 221.5,-1360.8 89,-2680.6 -1271.7,-3574.5"
         style="fill:#dfe7f2;fill-opacity:1;fill-rule:nonzero;stroke:none"
         id="path52" />
      <path
         d="m 30546.9,18654.7 c -230.3,-298.2 -790.8,-528.2 -1584.9,-91.7 -474.1,260.7 -1083.1,396.8 -1576.2,185.7 -59,156.5 5.3,337.6 -43.9,505.9 -53.4,184.9 -357.9,230.8 -466.5,398.6 -111.4,172.4 -50.8,518.8 -273.5,668.8 -129.1,87.2 -307.9,36.4 -498.7,143.3 536.2,493.4 1250.4,763.9 2128.3,716.5 1853.4,-99.6 2914.9,-1652.5 2315.4,-2527.1"
         style="fill:#ffad40;fill-opacity:1;fill-rule:nonzero;stroke:none"
         id="path54" />
      <path
         d="m 30497,19619.8 c -272,462.5 -786.9,886.6 -1474.4,1099.7 3.8,-17.8 5.3,-35.9 4.5,-54.5 -9.6,-217.4 -360.7,-380.7 -800,-380.7 -26.4,0 -53.1,0.5 -80.1,1.7 -476,20.9 -853.2,225.1 -843.3,455.5 0,0.8 0,1.6 0.1,2.3 269.2,34.2 553.8,87.7 673.2,303.2 19.8,0.3 39.7,0.5 59.6,0.5 61.7,0 124.2,-1.7 187.3,-5.1 1198.8,-64.4 1940.7,-730 2211.8,-1280.3 23.4,-47.6 43.8,-95 61.3,-142.3 m -3771.3,952.8 c 13.3,13.9 26.3,27.8 39.4,41.7 49.8,43.8 130.2,69.2 227.2,87.4 24.4,4.5 49.8,8.6 76.1,12.5 -118.9,-39.8 -233.2,-87.2 -342.7,-141.6"
         style="fill:#ffd6a0;fill-opacity:1;fill-rule:nonzero;stroke:none"
         id="path56" />
      <path
         d="m 30714.6,19202.7 c -1.5,-197.1 -55.6,-384.6 -167.7,-548 -230.3,-298.2 -790.8,-528.2 -1584.9,-91.7 -474.1,260.7 -1083.1,396.8 -1576.2,185.7 -59,156.5 5.3,337.6 -43.9,505.9 -10.6,36.4 -31,67.4 -57.6,95.1 563,227.4 1090,-23 1587.4,-273.5 661.9,-333.4 1271.2,-666.7 1842.9,126.5"
         style="fill:#ff9343;fill-opacity:1;fill-rule:nonzero;stroke:none"
         id="path58" />
      <path
         d="m 24154.3,9063.1 c -1504.3,0 -2809.4,753.51 -3073.5,975.8 -59,49.7 -66.6,137.9 -17,196.9 49.7,59.1 137.9,66.6 196.8,17 359.6,-302.6 2778.2,-1656.7 4832,-370.9 1881.4,1235.6 1296.1,3358.9 779.7,5232.3 -310.1,1124.8 -602.9,2187.3 -309.3,2924.6 174.3,437.6 457.4,729.5 841.5,867.5 463.1,166.4 1070.6,83.8 1624.8,-220.8 704.6,-387.2 1196.3,-214.8 1404.7,51.6 186.5,275.1 187.2,648.4 1.7,1025 -271.1,550.3 -1013,1215.9 -2211.8,1280.3 -1334.4,71.4 -2343.8,-614.1 -2839.9,-1931.4 -493.4,-1310.4 -43.9,-2859.8 352.6,-4226.9 430.2,-1482.9 836.6,-2883.6 -28.4,-3733.6 -875.7,-860.8 -2531.1,-575.3 -3332.4,8.2 -62.3,45.4 -76.1,132.8 -30.7,195.2 45.3,62.5 132.8,76.1 195.1,30.8 704.4,-513 2212.4,-781.6 2972.3,-34.8 745.9,733 379.8,1995 -44.1,3456.3 -408.7,1409 -872,3005.9 -345.8,4403.3 534.7,1420 1670.6,2188.8 3116.4,2112 1319.1,-70.9 2142.7,-817.8 2447.2,-1435.9 232.2,-471.3 223.4,-948.8 -24.2,-1309.9 -1.5,-2.1 -3,-4.3 -4.6,-6.4 -274.3,-355.4 -900.7,-602.5 -1762.5,-128.8 -485.2,266.6 -1007.1,342.5 -1396.1,202.7 -305.4,-109.7 -533,-347.8 -676.3,-707.8 -259,-650.1 21.8,-1668.6 319,-2747 270.9,-982.6 551,-1998.6 520.6,-2966.5 -35.5,-1129.2 -499.6,-1971.6 -1418.8,-2575.4 -685,-428.8 -1407.5,-583.4 -2089,-583.4"
         style="fill:#000072;fill-opacity:1;fill-rule:nonzero;stroke:none"
         id="path60" />
      <path
         d="m 19615.9,3652.2 c -3381.7,0 -6123.1,410.8 -6123.1,917.5 0,506.7 2741.4,917.5 6123.1,917.5 3381.7,0 6123.1,-410.8 6123.1,-917.5 0,-506.7 -2741.4,-917.5 -6123.1,-917.5"
         style="fill:#cbbcbb;fill-opacity:1;fill-rule:nonzero;stroke:none"
         id="path62" />
      <path
         d="m 22021,14806.3 c 1027.7,-703.7 1979,-1544 3447.1,-1232.5 1311.6,278.3 1980,1679.6 2619.3,3536.6 199.2,14.3 1416.5,171.6 1325.7,1072.9 -102.6,1019.2 -2055.7,1089.3 -2909.4,698.6 -763.4,-349.3 -1362.4,-1252.9 -1693.5,-1907.8 -1107.4,664 -2259.6,1475.2 -3208.8,1465.3 l 419.6,-3633.1"
         style="fill:#ffffff;fill-opacity:1;fill-rule:nonzero;stroke:none"
         id="path64" />
      <path
         d="m 17210.9,14806.3 c -210,-143.9 -417.1,-293.7 -626,-437.5 -812.6,-561.5 -1653.1,-1042.6 -2821.3,-794.8 -1082.6,229.5 -1726.5,1224.1 -2278,2608.4 -116.9,293.3 -229.4,603.7 -341.1,927.9 -199.2,14.5 -1416.63,171.7 -1325.77,1072.8 102.78,1019.5 2055.67,1089.5 2909.57,699 763.4,-349.5 1362.3,-1253.1 1693.3,-1907.9 659.2,395 1334,842.2 1972.7,1137.7 434.2,200.8 852,331.6 1236.3,327.5 l -419.7,-3633.1"
         style="fill:#ffffff;fill-opacity:1;fill-rule:nonzero;stroke:none"
         id="path66" />
      <path
         d="m 14470.6,16565.6 c -404.3,692 -1033.5,1670.2 -1763.9,2021.7 -300.8,144.7 -742.7,226.9 -1191.8,226.9 -763.6,0 -1548.24,-237.4 -1696.89,-808.2 -5.6,55.5 -5.6,114.4 0.74,177 66.14,656 898.45,918.9 1710.95,918.9 450.1,0 894.2,-80.6 1198.6,-219.9 763.5,-349.5 1362.3,-1253.1 1693.4,-1907.8 659.1,394.9 1333.9,842.1 1972.6,1137.6 265.6,122.9 525.2,219.6 774.7,275.1 78.4,-12.5 157.9,-24.4 237.8,-35.6 l -821.9,-323.1 c -739.6,-400.6 -1915.7,-1091.6 -2114.3,-1462.6"
         style="fill:#ffffff;fill-opacity:1;fill-rule:nonzero;stroke:none"
         id="path68" />
      <path
         d="m 24810.2,16974.1 c -69,41.4 -138.3,83.4 -207.6,125.7 69.3,-42.3 138.6,-84.2 207.7,-125.6 -0.1,-0.1 0,0 -0.1,-0.1"
         style="fill:#fef3e1;fill-opacity:1;fill-rule:nonzero;stroke:none"
         id="path70" />
      <path
         d="m 25376.8,17891.8 c 309.3,411 691.3,790.8 1126.8,990.2 101,46.3 217.4,86 344.4,118.5 l -0.1,-0.1 c -126.9,-32.5 -243.2,-72.3 -344.2,-118.5 -435.6,-199.3 -817.6,-579 -1126.9,-990.1"
         style="fill:#ffffff;fill-opacity:1;fill-rule:nonzero;stroke:none"
         id="path72" />
      <path
         d="m 26847.9,19000.4 0.1,0.1 c 158.2,40.5 332.7,69.8 514.1,86.1 v 0 c -181.5,-16.4 -356,-45.7 -514.2,-86.2"
         style="fill:#f5f5f5;fill-opacity:1;fill-rule:nonzero;stroke:none"
         id="path74" />
      <path
         d="m 29413.9,18006 v 0.1 c 5.5,55.6 5.5,114.6 -0.8,177.2 -1.6,16.2 -3.8,32.4 -6.3,48.2 v 0 c 2.6,-16 4.7,-32.1 6.4,-48.5 6.3,-62.6 6.3,-121.5 0.7,-177"
         style="fill:#fef3e1;fill-opacity:1;fill-rule:nonzero;stroke:none"
         id="path76" />
      <path
         d="m 27362.1,19086.6 v 0 c 111.5,10.1 225.6,15.3 340.1,15.3 87.3,0 174.9,-3 261.7,-9.2 -86.7,6.2 -174.2,9.2 -261.5,9.2 -114.6,0 -228.7,-5.2 -340.3,-15.3"
         style="fill:#ffbe8e;fill-opacity:1;fill-rule:nonzero;stroke:none"
         id="path78" />
      <path
         d="m 29406.8,18231.5 v 0 c -4.4,26.4 -9.9,52.1 -16.8,77.2 6.9,-25 12.5,-50.8 16.8,-77.2"
         style="fill:#6666aa;fill-opacity:1;fill-rule:nonzero;stroke:none"
         id="path80" />
      <path
         d="m 24761.4,16565.6 c -198.7,371 -1374.8,1062 -2114.4,1462.6 l -821.7,323.1 c 80.1,11.2 159.4,23 237.9,35.6 249.4,-55.6 508.9,-152.2 774.5,-275.1 571.7,-264.5 1172.4,-650.6 1764.9,-1012 69.3,-42.3 138.6,-84.3 207.6,-125.7 0.1,0.1 0,0 0.1,0.1 v 0 c 142.2,281.2 333.7,608.2 566.5,917.6 309.3,411.1 691.3,790.8 1126.9,990.1 101,46.2 217.3,86 344.2,118.5 158.2,40.5 332.7,69.8 514.2,86.2 111.6,10.1 225.7,15.3 340.3,15.3 87.3,0 174.8,-3 261.5,-9.2 667.2,-48 1290.2,-284.7 1426.1,-784 6.9,-25.1 12.4,-50.8 16.8,-77.2 2.5,-15.8 4.7,-32 6.3,-48.2 6.3,-62.6 6.3,-121.6 0.8,-177.2 -148.8,570.8 -933.3,808.1 -1696.8,808.1 -449.2,0 -891.1,-82.2 -1191.9,-226.9 -730.4,-351.5 -1359.6,-1329.7 -1763.8,-2021.7"
         style="fill:#ffffff;fill-opacity:1;fill-rule:nonzero;stroke:none"
         id="path82" />
      <path
         d="m 16584.9,14368.8 c -812.6,-561.6 -1653.1,-1042.6 -2821.3,-794.8 -1082.6,229.5 -1726.5,1224.1 -2278,2608.4 438.3,-809.7 1381.3,-2163.1 2788.2,-2102.8 1362.6,58.5 1326.5,1537.1 2036.7,2103.2 188.4,150.1 253.2,-898.1 274.4,-1814"
         style="fill:#dfe8f4;fill-opacity:1;fill-rule:nonzero;stroke:none"
         id="path84" />
      <path
         d="m 22646.6,14368.8 c 812.6,-561.6 1653.1,-1042.6 2821.4,-794.8 1082.5,229.5 1726.4,1224.1 2278,2608.4 -438.4,-809.7 -1381.3,-2163.1 -2788.2,-2102.8 -1362.7,58.5 -1326.5,1537.1 -2036.7,2103.2 -188.4,150.1 -253.2,-898.1 -274.5,-1814"
         style="fill:#dfe8f4;fill-opacity:1;fill-rule:nonzero;stroke:none"
         id="path86" />
      <path
         d="m 22838.3,18111.5 c -736.2,-349.1 -1905.2,-574.6 -3221.6,-574.6 -1316.9,0 -2486.2,225.8 -3222.4,575 434.2,200.8 852,331.6 1236.3,327.5 h 3970.6 c 384.7,4.1 802.5,-126.7 1237.1,-327.9"
         style="fill:#dfe8f4;fill-opacity:1;fill-rule:nonzero;stroke:none"
         id="path88" />
      <path
         d="m 21834.7,17774.7 c -636.4,-150.2 -1398.8,-237.8 -2218,-237.8 -820.1,0 -1582.8,87.6 -2219.2,238.1 429,436 1234.9,1088.1 2218.4,1088.1 983.9,0 1790.2,-652.5 2218.8,-1088.4"
         style="fill:#b25b36;fill-opacity:1;fill-rule:nonzero;stroke:none"
         id="path90" />
      <path
         d="m 12406.6,18827 c 2.5,-111 -382.9,-209.9 -861,-220.9 -478.1,-10.9 -867.7,70.1 -870.2,181.1 -2.6,111 382.9,209.9 861,220.9 478,11 867.7,-70.1 870.2,-181.1"
         style="fill:#f9acbc;fill-opacity:1;fill-rule:nonzero;stroke:none"
         id="path92" />
      <path
         d="m 10925.3,18409.6 c 1.7,-73.9 -119,-136.6 -269.6,-140.1 -150.6,-3.4 -274.1,53.7 -275.8,127.6 -1.7,73.9 119.1,136.6 269.7,140.1 150.6,3.4 274,-53.7 275.7,-127.6"
         style="fill:#f9acbc;fill-opacity:1;fill-rule:nonzero;stroke:none"
         id="path94" />
      <path
         d="m 10576.2,18753.9 c 1.9,-73.7 -118.8,-136.3 -269.6,-140.1 -68.5,-1.5 -131.1,9.3 -179.5,29.1 90.1,85.3 202.6,157.6 331.1,217.2 70.3,-22 116.9,-61.1 118,-106.2"
         style="fill:#f9acbc;fill-opacity:1;fill-rule:nonzero;stroke:none"
         id="path96" />
      <path
         d="m 14380.4,13367.3 c -204.8,0 -419.3,21.8 -645.7,69.8 -1305.2,276.9 -2003.4,1560.2 -2693.2,3543.9 -232,30.3 -835.8,143.9 -1156.7,525.8 -162.69,193.5 -231.64,425.8 -204.95,690.5 31.38,311.6 215.05,572.3 531.15,753.7 706.3,405.5 1924.1,356 2575.2,58 817.9,-374.3 1416.9,-1327.9 1690.6,-1838.4 120.1,72.9 240.7,147.1 361.4,221.4 948.6,583.7 1929.3,1187.3 2775.3,1187.3 6.2,0 12.3,-0.1 18.5,-0.1 h 1351.6 v -279.5 h -1353.1 c -5.2,0 -10.5,0.1 -15.7,0.1 -768.3,0 -1714.7,-582.5 -2630.3,-1145.9 -161.2,-99.2 -327.9,-201.8 -491.1,-299.6 l -128.7,-77.2 -67.7,133.9 c -217.4,430.1 -811.2,1470.6 -1626.9,1843.8 -576.3,263.7 -1715.2,301 -2320.2,-46.2 -237.9,-136.6 -369.89,-318.1 -392.19,-539.3 -19.03,-189.4 27.03,-347.2 140.89,-482.7 255.3,-303.8 802.3,-418.6 1055.9,-436.9 l 92,-6.6 30,-87.2 c 667.6,-1939.2 1321.4,-3191.9 2516.2,-3445.4 1244.3,-264 2095,335.8 2995.4,970.9 114.3,80.6 228.7,161.2 344,240.2 l 157.7,-230.7 c -114.3,-78.2 -227.6,-158.1 -340.7,-237.9 -758.8,-535.2 -1539.3,-1085.7 -2568.7,-1085.7"
         style="fill:#000072;fill-opacity:1;fill-rule:nonzero;stroke:none"
         id="path98" />
      <path
         d="m 14635,16182.8 -348.2,754.9 269.7,72.8 z"
         style="fill:#000072;fill-opacity:1;fill-rule:nonzero;stroke:none"
         id="path100" />
      <path
         d="m 11742.5,17244.7 -567.4,-270.7 -61.2,272.7 z"
         style="fill:#000072;fill-opacity:1;fill-rule:nonzero;stroke:none"
         id="path102" />
      <path
         d="m 26825.3,18827 c -2.6,-111 382.9,-209.9 861,-220.9 478,-10.9 867.6,70.1 870.2,181.1 2.5,111 -383,209.9 -861,220.9 -478.1,11 -867.7,-70.1 -870.2,-181.1"
         style="fill:#f9acbc;fill-opacity:1;fill-rule:nonzero;stroke:none"
         id="path104" />
      <path
         d="m 28306.5,18409.6 c -1.7,-73.9 119.1,-136.6 269.7,-140.1 150.6,-3.4 274,53.7 275.7,127.6 1.7,73.9 -119,136.6 -269.6,140.1 -150.6,3.4 -274.1,-53.7 -275.8,-127.6"
         style="fill:#f9acbc;fill-opacity:1;fill-rule:nonzero;stroke:none"
         id="path106" />
      <path
         d="m 28655.6,18753.9 c -1.8,-73.7 118.8,-136.3 269.7,-140.1 68.5,-1.5 131.1,9.3 179.5,29.1 -90.2,85.3 -202.6,157.6 -331.1,217.2 -70.4,-22 -116.9,-61.1 -118.1,-106.2"
         style="fill:#f9acbc;fill-opacity:1;fill-rule:nonzero;stroke:none"
         id="path108" />
      <path
         d="m 24851.4,13367.3 c -1029.5,0 -1809.8,550.5 -2568.7,1085.7 -113.2,79.9 -226.4,159.8 -340.6,237.9 l 157.7,230.7 c 115.3,-79 229.6,-159.6 343.8,-240.1 900.5,-635.1 1750.9,-1235.4 2995.6,-971 1194.8,253.5 1848.5,1506.3 2516.1,3445.4 l 30.1,87.2 91.9,6.6 c 253.6,18.3 800.7,133.1 1056,436.9 113.8,135.5 159.9,293.3 140.9,482.7 -22.3,221.2 -154.3,402.7 -392.3,539.3 -604.9,347.2 -1743.9,310 -2320.1,46.2 -815.8,-373.2 -1409.5,-1413.7 -1626.9,-1843.8 l -67.7,-133.9 -128.7,77.2 c -163.3,97.9 -330.1,200.5 -491.3,299.7 -921.7,567.2 -1873.7,1153 -2644.4,1145.7 h -1354.5 v 279.5 h 1353 c 6.1,0 12.3,0.1 18.4,0.1 844.6,0 1825.2,-603.5 2773.8,-1187.2 120.7,-74.3 241.4,-148.6 361.6,-221.5 273.7,510.5 872.6,1464.1 1690.5,1838.4 651.1,297.9 1868.9,347.4 2575.3,-58 316.1,-181.4 499.7,-442.1 531.1,-753.7 26.7,-264.7 -42.3,-497 -205,-690.6 -320.9,-381.9 -924.6,-495.4 -1156.6,-525.7 -689.8,-1983.7 -1388.1,-3267 -2693.3,-3543.9 -226.2,-48 -440.9,-69.8 -645.7,-69.8"
         style="fill:#000072;fill-opacity:1;fill-rule:nonzero;stroke:none"
         id="path110" />
      <path
         d="m 24596.8,16182.8 78.6,827.7 269.7,-72.8 z"
         style="fill:#000072;fill-opacity:1;fill-rule:nonzero;stroke:none"
         id="path112" />
      <path
         d="m 27489.4,17244.7 628.6,2 -61.2,-272.7 z"
         style="fill:#000072;fill-opacity:1;fill-rule:nonzero;stroke:none"
         id="path114" />
      <path
         d="m 19501.5,9329.2 c 0,0 50.7,-2754.5 25.1,-3557.8 -29.6,-930.5 -396.9,-1201.7 -1058.2,-1201.7 -703.4,0 -1258.7,0 -1940.7,0 -439.9,0 -765.7,292.8 -769.4,821.5 -2.4,348.5 215.2,707.9 577.2,904.5 -845,2835.3 -1109.1,5712.7 -1109.1,5712.7"
         style="fill:#c97043;fill-opacity:1;fill-rule:nonzero;stroke:none"
         id="path116" />
      <path
         d="m 19526.6,5771.4 c -29.5,-930.4 -397,-1201.7 -1058,-1201.7 h -1941 c -428.3,0 -748.5,277.6 -768.3,780.7 -0.7,13.4 -1.1,27.2 -1.1,41 -2.2,348.4 215.3,707.6 577.2,904.3 -544,1825.6 -847.2,3668.6 -994.3,4749.6 -81.2,598.1 -114.7,962.9 -114.7,962.9 l 4275.2,-2678.9 c 0,0 50.7,-2754.5 25,-3557.9"
         style="fill:#ffffff;fill-opacity:1;fill-rule:nonzero;stroke:none"
         id="path118" />
      <path
         d="m 19526.6,5771.4 c -29.5,-930.4 -397,-1201.7 -1058,-1201.7 h -1941 c -428.3,0 -748.5,277.6 -768.3,780.7 238.4,-121.5 663.7,-224.9 1417.4,-232.6 1373.2,-13.9 1852.7,135.1 1843.4,1025.2 -7.5,720.4 -80.8,1875 -974.6,2552.1 -781.7,592.1 -2165.5,1282.2 -2704.4,2350.2 -81.2,598.1 -114.7,962.9 -114.7,962.9 l 4275.2,-2678.9 c 0,0 50.7,-2754.5 25,-3557.9"
         style="fill:#dfe8f4;fill-opacity:1;fill-rule:nonzero;stroke:none"
         id="path120" />
      <path
         d="m 18468.4,4429.9 h -1940.7 c -539.8,0 -905.1,385.9 -909,960.3 -2.6,374 210.9,743.8 552.2,969.5 -815.1,2782.8 -1081,5607.3 -1083.6,5635.9 l 278.1,25.6 c 2.7,-28.7 272.8,-2897 1103.9,-5685.6 18.9,-63.3 -9.1,-131.2 -67.2,-162.7 -308.4,-167.5 -506.2,-474 -504.1,-780.7 2.9,-427.5 238.3,-682.8 629.7,-682.8 h 1940.7 c 546.2,0 890.4,178.5 918.7,1066.5 25.1,790.6 -24.8,3523.21 -25.3,3550.71 l 279.3,5.19 c 0.5,-27.6 50.5,-2767.19 25.1,-3564.8 -29.8,-937.2 -388,-1337.1 -1197.8,-1337.1"
         style="fill:#000072;fill-opacity:1;fill-rule:nonzero;stroke:none"
         id="path122" />
      <path
         d="m 17780,6208.1 c -410.7,77.6 -846.6,102.8 -1249.8,-15.99 -118.3,-35.21 -249.4,-89.31 -340.3,-164.11 l -158.7,230 c 78.7,45.4 153.4,72.4 229.4,94 506.3,135.11 1038.1,30.7 1519.4,-143.9"
         style="fill:#000072;fill-opacity:1;fill-rule:nonzero;stroke:none"
         id="path124" />
      <path
         d="m 17559,5892.6 c -212.3,-308.9 -196,-762.4 48.2,-1043.5 74.5,-85.8 166.3,-136.1 259.9,-143.1 l -61.4,-272.7 c -580.5,195.4 -628.8,1059.2 -246.7,1459.3"
         style="fill:#000072;fill-opacity:1;fill-rule:nonzero;stroke:none"
         id="path126" />
      <path
         d="m 16688.3,5892.6 c -350.4,-285.6 -214.7,-1067.8 216.8,-1191.7 l -95.9,-262.5 c -517.2,228.3 -599.8,1164 -120.9,1454.2"
         style="fill:#000072;fill-opacity:1;fill-rule:nonzero;stroke:none"
         id="path128" />
      <path
         d="m 19730.4,9329.2 c 0,0 -50.7,-2754.5 -25.2,-3557.8 29.6,-930.5 397,-1201.7 1058.3,-1201.7 703.3,0 1258.7,0 1940.6,0 440,0 765.8,292.8 769.4,821.5 2.4,348.5 -215.2,707.9 -577.1,904.5 845,2835.3 1109.1,5712.7 1109.1,5712.7"
         style="fill:#c97043;fill-opacity:1;fill-rule:nonzero;stroke:none"
         id="path130" />
      <path
         d="m 19705.3,5771.4 c 29.4,-930.4 397,-1201.7 1058,-1201.7 h 1941 c 428.2,0 748.5,277.6 768.2,780.7 0.8,13.4 1.2,27.2 1.2,41 2.2,348.4 -215.3,707.6 -577.3,904.3 544.1,1825.6 847.3,3668.6 994.3,4749.6 81.2,598.1 114.7,962.9 114.7,962.9 L 19730.3,9329.3 c 0,0 -50.7,-2754.5 -25,-3557.9"
         style="fill:#ffffff;fill-opacity:1;fill-rule:nonzero;stroke:none"
         id="path132" />
      <path
         d="m 19705.3,5771.4 c 29.4,-930.4 397,-1201.7 1058,-1201.7 h 1941 c 428.2,0 748.5,277.6 768.2,780.7 -238.3,-121.5 -663.6,-224.9 -1417.3,-232.6 -1373.3,-13.9 -1852.7,135.1 -1843.4,1025.2 7.5,720.4 80.8,1875 974.6,2552.1 781.6,592.1 2165.5,1282.2 2704.3,2350.2 81.2,598.1 114.7,962.9 114.7,962.9 L 19730.3,9329.3 c 0,0 -50.7,-2754.5 -25,-3557.9"
         style="fill:#dfe8f4;fill-opacity:1;fill-rule:nonzero;stroke:none"
         id="path134" />
      <path
         d="m 22704.1,4429.9 h -1940.6 c -809.8,0 -1168,399.9 -1197.8,1337.1 -25.4,797.61 24.6,3537.2 25.1,3564.8 l 279.2,-5.19 c -0.5,-27.5 -50.3,-2760.11 -25.2,-3550.71 28.3,-888 372.5,-1066.5 918.7,-1066.5 h 1940.6 c 391.4,0 626.8,255.3 629.8,682.8 2.1,306.7 -195.8,613.2 -504.1,780.7 -58.1,31.5 -86.1,99.4 -67.2,162.7 831.4,2789.8 1101.2,5656.9 1103.9,5685.6 l 278.1,-25.6 c -2.6,-28.6 -268.5,-2853.1 -1083.7,-5635.9 341.3,-225.7 554.8,-595.5 552.3,-969.5 -4,-574.4 -369.3,-960.3 -909.1,-960.3"
         style="fill:#000072;fill-opacity:1;fill-rule:nonzero;stroke:none"
         id="path136" />
      <path
         d="m 21451.9,6208.1 c 481.2,174.5 1013.1,279.01 1519.4,143.9 76,-21.6 150.6,-48.6 229.4,-94 L 23042,6028 c -91.1,74.9 -222,128.9 -340.3,164.11 -403.3,118.79 -839.1,93.59 -1249.8,15.99"
         style="fill:#000072;fill-opacity:1;fill-rule:nonzero;stroke:none"
         id="path138" />
      <path
         d="m 21672.9,5892.6 c 382,-399.9 333.8,-1264 -246.8,-1459.3 l -61.3,272.7 c 219.2,17.1 365.7,252.1 425.8,457.7 65.7,245.6 26.1,515.3 -117.7,728.9"
         style="fill:#000072;fill-opacity:1;fill-rule:nonzero;stroke:none"
         id="path140" />
      <path
         d="m 22543.6,5892.6 c 478.7,-290.1 396.5,-1225.7 -120.9,-1454.1 l -96,262.4 c 431.4,124 567.4,905.8 216.9,1191.7"
         style="fill:#000072;fill-opacity:1;fill-rule:nonzero;stroke:none"
         id="path142" />
      <path
         d="m 22170.3,17391.6 c 0,0 3235,-4406.6 1253.5,-6905.2 L 21811.3,9419 C 21378,9199.5 20632.9,8981.2 19616,8981.2 c -1017,0 -1762.1,218.3 -2195.4,437.8 l -1612.5,1067.4 c -1981.6,2498.6 1253.4,6905.2 1253.4,6905.2 0,0 1076.7,1471.7 2554.4,1471.7 1477.8,0 2554.4,-1471.7 2554.4,-1471.7"
         style="fill:#ffffff;fill-opacity:1;fill-rule:nonzero;stroke:none"
         id="path144" />
      <path
         d="m 23930.2,11470.8 c -101.7,-348.7 -265.5,-680.8 -506.5,-984.4 L 21811.2,9419.11 c -433.1,-219.81 -1178.3,-437.81 -2195.3,-437.81 -1017,0 -1761.8,218 -2195.3,437.81 l -1612.5,1067.29 c -241,303.6 -404.8,635.7 -506.5,984.4 623.8,-587.2 1949.9,-1462.2 4314.3,-1462.2 2364.4,0 3690.5,875 4314.3,1462.2"
         style="fill:#dfe8f4;fill-opacity:1;fill-rule:nonzero;stroke:none"
         id="path146" />
      <path
         d="m 22234.7,10444.2 c -605.2,-505.6 -1474.8,-829.8 -2618.8,-829.8 -1144,0 -2013.6,324.2 -2618.7,829.8 678.1,-253.7 1540.6,-435.6 2618.7,-435.6 1078.1,0 1940.6,181.9 2618.8,435.6"
         style="fill:#e8ba9a;fill-opacity:1;fill-rule:nonzero;stroke:none"
         id="path148" />
      <path
         d="m 21834.7,17774.7 c -636.4,-150.2 -1398.8,-237.8 -2218,-237.8 -820.1,0 -1582.8,87.6 -2219.2,238.1 429,436 1234.9,1088.1 2218.4,1088.1 983.9,0 1790.2,-652.5 2218.8,-1088.4"
         style="fill:#dfe8f4;fill-opacity:1;fill-rule:nonzero;stroke:none"
         id="path150" />
      <path
         d="m 19615.9,9614.4 c -2575.5,0 -3761.2,1642.6 -3665.2,3298.5 85.3,1471.9 1262.5,4023.7 3665.2,4023.7 2402.8,0 3579.9,-2551.8 3665.2,-4023.7 96.1,-1655.9 -1089.6,-3298.5 -3665.2,-3298.5"
         style="fill:#ffffff;fill-opacity:1;fill-rule:nonzero;stroke:none"
         id="path152" />
      <path
         d="m 22234.7,10444.2 c -605.2,-505.6 -1474.8,-829.8 -2618.8,-829.8 -1144,0 -2013.6,324.2 -2618.7,829.8 678.1,-253.7 1540.6,-435.6 2618.7,-435.6 1078.1,0 1940.6,181.9 2618.8,435.6"
         style="fill:#dfe8f4;fill-opacity:1;fill-rule:nonzero;stroke:none"
         id="path154" />
      <path
         d="m 23423.8,10486.4 c 647.2,1087.3 573.4,2343.9 245.5,3527.1 -329.3,1193 -878.7,2307.1 -1499,3378.1 304,-357.6 571.8,-746.2 817.7,-1146.2 976.2,-1590.8 1978.8,-4215.4 435.8,-5759"
         style="fill:#000072;fill-opacity:1;fill-rule:nonzero;stroke:none"
         id="path156" />
      <path
         d="m 15808.1,10486.4 c -1542.9,1543.9 -540.8,4167.2 435.8,5759 245.9,400 513.7,788.6 817.6,1146.2 -620.2,-1071 -1169.6,-2185.2 -1498.9,-3378.1 -328,-1182.8 -401.6,-2440.4 245.5,-3527.1"
         style="fill:#000072;fill-opacity:1;fill-rule:nonzero;stroke:none"
         id="path158" />
      <path
         d="m 17420.6,9419 c 1310.1,-402.1 3080,-402.3 4390.7,0 -1131.7,-774 -3258.1,-774.39 -4390.7,0"
         style="fill:#000072;fill-opacity:1;fill-rule:nonzero;stroke:none"
         id="path160" />
      <path
         d="m 12678.5,27319.4 c -865.9,1823.4 -923.1,6941.5 485.2,7575.4 1456.3,655.5 4858.7,-2002.2 5665.6,-3078.4 l -6150.8,-4497"
         style="fill:#faa625;fill-opacity:1;fill-rule:nonzero;stroke:none"
         id="path162" />
      <path
         d="m 18829.2,31816.3 -1178.3,-861.7 -4972.5,-3635.3 c -681.6,1436 -862,4913.4 -220.8,6637.2 173.2,465.7 406.3,803.3 706,938.4 1456.4,655.3 4858.9,-2002.1 5665.6,-3078.6"
         style="fill:#f9a528;fill-opacity:1;fill-rule:nonzero;stroke:none"
         id="path164" />
      <g
         id="g166">
        <g
           id="g168"
           clip-path="url(#clipPath172)">
          <path
             d="m 12197.9,32930.5 h 259.699 v 1025.91 H 12197.9 Z"
             style="fill:#fff5e6;fill-opacity:1;fill-rule:nonzero;stroke:none"
             id="path174" />
        </g>
      </g>
      <path
         d="m 17258.2,32901.9 c -1136.1,886.6 -2609.5,1756.7 -3627.8,1756.7 -195.8,0 -374.7,-32.2 -531.1,-102.6 -299.6,-135 -532.8,-472.6 -706,-938.4 -76.4,-205.5 -141.4,-435.6 -194.8,-684.1 63.2,379.8 149.1,727.2 259.1,1023 v 0 c 173.2,465.7 406.3,803.3 706,938.4 156.4,70.4 335.4,102.6 531.2,102.6 1110.4,0 2762.5,-1035.1 3928,-1997.7 -96,-23.3 -191,-48.3 -285.2,-75 -0.5,-0.1 -0.9,-0.2 -1.4,-0.4 -1.7,-0.5 -3.5,-1 -5.2,-1.5 -1.1,-0.3 -2.3,-0.6 -3.4,-0.9 -1,-0.3 -1.9,-0.6 -3,-0.9 -1.7,-0.5 -3.5,-1 -5.2,-1.5 h -0.1 c -20.4,-5.8 -40.7,-11.7 -61.1,-17.7"
         style="fill:#fcd294;fill-opacity:1;fill-rule:nonzero;stroke:none"
         id="path176" />
      <path
         d="m 17650.9,30954.6 -4972.6,-3635.3 c -681.5,1436 -861.9,4913.4 -220.7,6637.2 231,270.2 496.9,399.2 811.8,354.7 1516.3,-214.5 3946.4,-2753.5 4381.5,-3356.6"
         style="fill:#f47e1e;fill-opacity:1;fill-rule:nonzero;stroke:none"
         id="path178" />
      <path
         d="m 12678.5,27179.7 c -52.2,0 -102.3,29.4 -126.2,79.8 -665.6,1401.6 -897.2,4917.4 -231,6730.9 198.1,539.4 462.3,886.5 785.1,1031.8 1557.5,701 5031.3,-2050.5 5834.6,-3122 46.3,-61.7 33.8,-149.3 -28,-195.6 -61.5,-46.3 -149.1,-33.9 -195.4,27.9 -846,1128.3 -4181.9,3626.4 -5496.6,3034.9 -248.2,-111.8 -468.7,-413.8 -637.6,-873.4 -645.3,-1756.7 -422.5,-5159.3 221.2,-6514.6 33.1,-69.7 3.5,-153 -66.2,-186.2 -19.4,-9.2 -39.7,-13.5 -59.9,-13.5"
         style="fill:#000072;fill-opacity:1;fill-rule:nonzero;stroke:none"
         id="path180" />
      <path
         d="m 13398.5,33967.8 c 471.5,300.3 2893.3,-965 2989.1,-1838.7 90.3,-823.9 -1084.7,-1850.5 -1274.5,-1957 -189.9,-106.5 -1491.5,-1081.4 -1857.4,-629 -607.3,750.5 -489.6,4022 142.8,4424.7"
         style="fill:#ff8080;fill-opacity:1;fill-rule:nonzero;stroke:none"
         id="path182" />
      <path
         d="m 15113,30172.3 c -189.9,-106.8 -1491.2,-1081.6 -1857.3,-629.2 -241.3,298.1 -368.2,994.6 -393.5,1750.8 -26.5,783.6 55.8,1631.5 231.9,2167.6 81.9,248.3 183.9,429.8 304.3,506.5 471.5,300.3 2893.3,-965 2989.3,-1839.1 90,-823.9 -1084.8,-1850.2 -1274.7,-1956.6"
         style="fill:#ffa9a9;fill-opacity:1;fill-rule:nonzero;stroke:none"
         id="path184" />
      <path
         d="m 15113,30172.3 c -189.9,-106.8 -1491.2,-1081.6 -1857.3,-629.2 -241.3,298.1 -368.2,994.6 -393.5,1750.8 175.8,-362 438.1,-681.5 757.4,-410.5 521.2,443.5 1278.6,950.9 1182.2,1690.7 -64.7,495.8 -1183.5,1179.1 -1707.7,887.4 81.9,248.3 183.9,429.8 304.3,506.5 471.5,300.3 2893.3,-965 2989.3,-1839.1 90,-823.9 -1084.8,-1850.2 -1274.7,-1956.6"
         style="fill:#f28686;fill-opacity:1;fill-rule:nonzero;stroke:none"
         id="path186" />
      <path
         d="m 13398.5,33967.8 h 0.5 z m 200.5,-94 c -60.5,0 -102.3,-9.1 -125.5,-23.8 v 0 c -56.8,-36.2 -252.1,-216.3 -382.7,-1016.9 -183.5,-1125.2 -105.6,-2733.7 273.4,-3202.1 106.9,-132.2 459.1,-141.1 1530.1,566.7 69.1,45.7 119.1,78.7 150.4,96.3 159.6,89.5 1286,1073 1204.1,1819.8 -43.2,393.8 -756.2,1017.5 -1658.4,1450.7 -486.3,233.5 -816.7,309.3 -991.4,309.3 z m -55.9,-4589.9 c -159.1,0 -297.2,49.1 -396,171.2 -436.6,539.7 -525.4,2237.1 -332,3423 106.8,654.5 277.8,1060.8 508.5,1207.6 320.8,204.5 1077.3,-120.2 1387.6,-269.3 639.8,-307.2 1742.1,-1005 1815.2,-1672.1 100.2,-914.1 -1125,-1970.6 -1345.1,-2094 -22.4,-12.6 -73.7,-46.6 -133.1,-85.8 -366.5,-242.2 -1029.8,-680.6 -1505.1,-680.6"
         style="fill:#000072;fill-opacity:1;fill-rule:nonzero;stroke:none"
         id="path188" />
      <path
         d="m 26569.1,27319.4 c 865.9,1823.4 923,6941.5 -485.3,7575.4 -1456.2,655.5 -4858.6,-2002.2 -5665.5,-3078.4 l 6150.8,-4497"
         style="fill:#faa625;fill-opacity:1;fill-rule:nonzero;stroke:none"
         id="path190" />
      <path
         d="m 20418.4,31816.3 1178.3,-861.7 4972.5,-3635.3 c 681.5,1436 862,4913.4 220.8,6637.2 -173.2,465.7 -406.4,803.3 -706,938.4 -1456.5,655.3 -4859,-2002.1 -5665.6,-3078.6"
         style="fill:#ffffff;fill-opacity:1;fill-rule:nonzero;stroke:none"
         id="path192" />
      <path
         d="m 27049.7,32930.5 c -0.2,1 -0.4,2 -0.6,3 -63.3,379.8 -149.1,727.2 -259.1,1023 110.5,-296.4 196.3,-645.1 259.7,-1026"
         style="fill:#fff5e6;fill-opacity:1;fill-rule:nonzero;stroke:none"
         id="path194" />
      <path
         d="m 21985.3,32898.7 c -119.9,35.6 -241.2,68.3 -363.9,98.3 1165.7,963.4 2819.8,2000.5 3931.4,2000.5 195.7,0 374.7,-32.2 531.2,-102.6 299.6,-135.1 532.8,-472.7 706,-938.4 v 0 c 110,-295.8 195.8,-643.2 259.1,-1023 -53.5,248.5 -118.4,478.6 -194.9,684.1 -173.1,465.8 -406.3,803.4 -705.9,938.4 -156.5,70.4 -335.4,102.6 -531.1,102.6 -1019.5,0 -2495.3,-872.2 -3631.9,-1759.9"
         style="fill:#ffffff;fill-opacity:1;fill-rule:nonzero;stroke:none"
         id="path196" />
      <path
         d="m 21596.7,30954.6 4972.5,-3635.3 c 681.5,1436 862,4913.4 220.8,6637.2 -231.1,270.2 -496.9,399.2 -811.9,354.7 -1516.3,-214.5 -3946.4,-2753.5 -4381.4,-3356.6"
         style="fill:#dfe7f2;fill-opacity:1;fill-rule:nonzero;stroke:none"
         id="path198" />
      <path
         d="m 26569,27179.7 c -20.1,0 -40.5,4.3 -59.8,13.5 -69.7,33.2 -99.3,116.5 -66.3,186.2 643.7,1355.3 866.5,4757.9 221.2,6514.6 -168.8,459.6 -389.3,761.6 -637.5,873.4 -1314.7,591.7 -4650.7,-1906.6 -5496.6,-3034.9 -46.3,-61.8 -133.8,-74.2 -195.5,-27.9 -61.7,46.3 -74.2,133.9 -27.9,195.6 803.3,1071.4 4277.1,3823 5834.5,3122 322.9,-145.3 587,-492.4 785.1,-1031.8 666.2,-1813.5 434.6,-5329.3 -231,-6730.9 -23.9,-50.4 -74,-79.8 -126.2,-79.8"
         style="fill:#000072;fill-opacity:1;fill-rule:nonzero;stroke:none"
         id="path200" />
      <path
         d="m 25849,33967.8 c -471.5,300.3 -2893.2,-965 -2989,-1838.7 -90.4,-823.9 1084.7,-1850.5 1274.5,-1957 189.9,-106.5 1491.5,-1081.4 1857.4,-629 607.2,750.5 489.5,4022 -142.9,4424.7"
         style="fill:#ff8080;fill-opacity:1;fill-rule:nonzero;stroke:none"
         id="path202" />
      <path
         d="m 24134.6,30172.3 c 189.9,-106.8 1491.2,-1081.6 1857.2,-629.2 241.4,298.1 368.2,994.6 393.5,1750.8 26.6,783.6 -55.7,1631.5 -231.9,2167.6 -81.8,248.3 -183.8,429.8 -304.3,506.5 -471.5,300.3 -2893.2,-965 -2989.3,-1839.1 -90,-823.9 1084.9,-1850.2 1274.8,-1956.6"
         style="fill:#ffa9a9;fill-opacity:1;fill-rule:nonzero;stroke:none"
         id="path204" />
      <path
         d="m 24134.6,30172.3 c 189.9,-106.8 1491.2,-1081.6 1857.2,-629.2 241.4,298.1 368.2,994.6 393.5,1750.8 -175.7,-362 -438,-681.5 -757.4,-410.5 -521.2,443.5 -1278.6,950.9 -1182.1,1690.7 64.7,495.8 1183.4,1179.1 1707.6,887.4 -81.8,248.3 -183.8,429.8 -304.3,506.5 -471.5,300.3 -2893.2,-965 -2989.3,-1839.1 -90,-823.9 1084.9,-1850.2 1274.8,-1956.6"
         style="fill:#f28686;fill-opacity:1;fill-rule:nonzero;stroke:none"
         id="path206" />
      <path
         d="m 25648.5,33873.8 c -174.7,0 -505,-75.8 -991.3,-309.3 -902.3,-433.2 -1615.2,-1056.9 -1658.4,-1450.7 -81.9,-746.7 1044.4,-1730.3 1204,-1819.8 31.3,-17.6 81.4,-50.6 150.6,-96.4 1070.9,-707.7 1423,-698.8 1530,-566.6 378.9,468.4 456.9,2076.8 273.4,3202 -130.6,800.6 -326,980.8 -382.7,1017 h -0.1 c -23.2,14.7 -65,23.8 -125.5,23.8 z m 55.9,-4589.9 c -475.2,-0.1 -1138.4,438.3 -1504.9,680.5 -59.5,39.3 -110.8,73.2 -133.3,85.9 -220,123.4 -1445.2,1180 -1345,2094 73.1,667.1 1175.4,1365 1815.2,1672.2 310.3,148.9 1066.9,473.6 1387.6,269.2 230.6,-146.8 401.7,-553.2 508.5,-1207.7 193.3,-1185.8 104.6,-2883.2 -332.1,-3422.9 -98.7,-122 -236.8,-171.2 -396,-171.2"
         style="fill:#000072;fill-opacity:1;fill-rule:nonzero;stroke:none"
         id="path208" />
      <path
         d="m 27541.9,22304.9 c 380.4,-378.8 566.6,-884.4 466.8,-1185.3 -161.6,-487.2 -1017.7,-306.8 -1243.7,-505.1 -1093.3,-1174.6 -3091.9,-2189.3 -5948.9,-2363.5 0,0 -531.2,-22.4 -1199.9,-22.4 -668.5,0 -1199.8,22.4 -1199.8,22.4 -2857,174.2 -4855.6,1188.9 -5948.9,2363.5 -226,198.3 -1082.1,17.9 -1243.7,505.1 -99.8,300.9 86.4,806.5 466.8,1185.3 -750.1,346.2 -969.8,978.9 -852.1,1334 101.1,303.2 803.3,233.3 805.1,575 14.3,2526.9 866.8,4968.8 2111,6424.6 0,0 388.9,449.1 814,832.4 369.2,333.2 981.9,684.3 981.9,684.3 1164,698.1 2541,1076.5 4065.7,1076.5 1524.8,0 2901.8,-378.4 4065.8,-1076.5 0,0 612.7,-351.1 981.9,-684.3 425.1,-383.3 814,-832.4 814,-832.4 1244.2,-1455.8 2096.7,-3897.7 2111,-6424.6 1.8,-341.7 704,-271.8 805.1,-575 117.7,-355.1 -102,-987.8 -852.1,-1334"
         style="fill:#ffffff;fill-opacity:1;fill-rule:nonzero;stroke:none"
         id="path210" />
      <path
         d="m 27542,22304.8 c 380.4,-378.9 566.3,-884.5 466.7,-1185.3 -161.7,-486.9 -1017.9,-306.6 -1243.6,-505.2 -1093.3,-1174.5 -3092.1,-2189.1 -5948.9,-2363.4 0,0 -531.3,-22.5 -1199.9,-22.5 -668.6,0 -1199.8,22.5 -1199.8,22.5 -2857.2,174.3 -4855.6,1188.9 -5948.9,2363.4 -226.2,198.6 -1082.4,18.3 -1243.6,505.2 -100.1,300.8 86.3,806.4 466.7,1185.3 -750.1,346.5 -969.8,979.1 -852.3,1334.1 101.4,303.1 803.3,233.3 805.1,575 3.9,737.9 79.7,1468.5 216.2,2169.6 329.7,1699.6 1013.9,3224.5 1894.8,4255.1 0,0 389.1,449.2 814.2,832.4 369.2,333 981.9,684.2 981.9,684.2 1065.1,638.7 2309.1,1010.3 3681,1068.3 126.9,5.7 255.2,8.3 384.7,8.3 1524.8,0 2901.9,-378.5 4065.8,-1076.6 0,0 612.7,-351.2 981.8,-684.2 425.1,-383.2 814.2,-832.4 814.2,-832.4 1244.1,-1456 2096.4,-3897.9 2110.7,-6424.7 1.7,-341.7 704.1,-271.9 805.1,-575 117.8,-355 -101.9,-987.6 -851.9,-1334.1"
         style="fill:#ffffff;fill-opacity:1;fill-rule:nonzero;stroke:none"
         id="path212" />
      <path
         d="m 11860.1,26383.5 h -0.4 c 329.7,1699.6 1013.9,3224.5 1894.8,4255.1 0,0 389.1,449.2 814.2,832.4 369.2,333 981.9,684.2 981.9,684.2 1065.1,638.7 2309.1,1010.3 3681,1068.3 1186.7,-5904.2 -2568,-8323.2 -7371.5,-6840"
         style="fill:#f9a528;fill-opacity:1;fill-rule:nonzero;stroke:none"
         id="path214" />
      <path
         d="m 24943.6,19286.3 -1.3,-1.4 c -1074.6,-541.8 -2453.4,-931.8 -4126.2,-1033.9 0,0 -531.2,-22.4 -1199.8,-22.4 -668.6,0 -1199.9,22.4 -1199.9,22.4 -1655.8,100.7 -3023,484.1 -4093,1017.4 -4.9,4.9 -9.9,10.3 -15.2,15.2 1075.4,-146.4 2307.4,-510 5308.1,-510 3017.6,0 4247.9,368.1 5327.3,512.7"
         style="fill:#dfe7f2;fill-opacity:1;fill-rule:nonzero;stroke:none"
         id="path216" />
      <path
         d="m 23710.2,32138.4 c -650.5,288.5 -1308.1,530.1 -1998.5,690.8 -1530.9,352.7 -3158.7,314.5 -4668.3,-123.9 -511.8,-145.9 -1001.3,-335.2 -1493.1,-550 424.2,334.1 910.9,589.7 1415.8,782.3 2112.7,777.6 4928.4,611 6744.1,-799.2"
         style="fill:#000072;fill-opacity:1;fill-rule:nonzero;stroke:none"
         id="path218" />
      <path
         d="m 18416.3,18251 c -2186,16.9 -4507.9,640.4 -6066.4,2253.9 l 11.7,-11.3 c -47.6,39.3 -164.3,50.1 -238.3,63.5 -299.2,42.7 -649.2,47.3 -896.1,270.8 -447.8,450.2 -8.6,1226.6 364.9,1576.3 l 40,-226 c -401,173.6 -762.4,482.4 -917.7,908.4 -71,196.1 -97.9,431.2 -19.5,633.8 131,304.9 525.9,298.2 755.8,453 31,27.2 21.4,37.3 23.5,71.1 24.1,1881.3 477.3,3865.4 1492.6,5464.9 225.9,339.2 484.7,658.8 787.9,929.1 -216.6,-343.2 -420.6,-684.9 -601.8,-1039.1 -861.6,-1621.2 -1307.6,-3450 -1337.5,-5283.4 -2.7,-59.5 1.9,-125.6 -11.5,-183.7 -78.2,-365.7 -575.3,-344.9 -794.1,-521.9 -16.8,-5.8 -40.7,-100.2 -39.4,-175 10.4,-453.5 387.4,-812.6 778.6,-1003.4 l 181.2,-87.6 c -200.4,-182.9 -385.8,-410.1 -487.1,-659.5 -93.8,-229.7 -178.9,-569.9 103.2,-687.6 185.2,-80.4 409.7,-90.7 621.6,-121 147.9,-25.6 283.9,-35 417.2,-152.1 1500.4,-1582.3 3722.9,-2214 5831.2,-2473.2"
         style="fill:#000072;fill-opacity:1;fill-rule:nonzero;stroke:none"
         id="path220" />
      <path
         d="m 20816.4,18251 c 2107.9,258.9 4331.1,891 5831.2,2473.2 133.2,117.1 269.3,126.4 417.1,152.1 211.8,30.1 436.6,40.4 621.7,121 282.1,117.5 196.8,458.2 103.2,687.6 -101.3,249.3 -286.7,476.5 -487.2,659.5 l 181.2,87.6 c 391.2,190.7 768.3,550.1 778.6,1003.4 1.3,74.8 -22.5,169.2 -39.3,175 -218.8,176.9 -716,156.3 -794.2,521.9 -12.9,58.4 -9.2,124.6 -11.4,183.7 -29.9,1833.4 -476,3662.2 -1337.6,5283.4 -181.1,354.2 -385.1,695.9 -601.8,1039.1 303.3,-270.3 562.1,-589.9 788,-929.1 1015,-1598.7 1468.6,-3584.2 1492.6,-5464.9 2.1,-33.3 -7.6,-44.1 23.5,-71.1 229.8,-154.8 624.8,-148.1 755.8,-453 78.4,-202.6 51.4,-437.7 -19.5,-633.8 -155.3,-425.9 -516.7,-734.8 -917.8,-908.4 l 40.1,226 c 373.9,-350.5 812.5,-1125.4 364.8,-1576.3 -246.9,-223.5 -596.8,-228.1 -896.1,-270.9 -73.6,-13.3 -191.1,-26.1 -238.2,-63.4 l 11.7,11.4 C 25324,18891.3 23002.6,18268 20816.4,18251"
         style="fill:#000072;fill-opacity:1;fill-rule:nonzero;stroke:none"
         id="path222" />
      <path
         d="m 17808.4,25194.9 c 1.2,-1048.4 -733.4,-1899.2 -1640.7,-1900.3 -907.4,-1 -1643.9,848.1 -1645.2,1896.5 -1.2,1048.5 733.4,1899.3 1640.8,1900.4 907.3,1 1643.9,-848.1 1645.1,-1896.6"
         style="fill:#000072;fill-opacity:1;fill-rule:nonzero;stroke:none"
         id="path224" />
      <path
         d="m 17172.7,25027.6 c 0.4,-374.7 -239,-678.8 -534.9,-679.1 -295.8,-0.3 -536,303.2 -536.4,677.9 -0.5,374.8 239,678.8 534.8,679.2 295.9,0.3 536.1,-303.2 536.5,-678"
         style="fill:#ffffff;fill-opacity:1;fill-rule:nonzero;stroke:none"
         id="path226" />
      <path
         d="m 15455.1,25119 c -163.7,0 -296.7,205.4 -297,458.9 -0.3,253.6 132.3,459.3 296.2,459.5 0,0 0.1,0 0.2,0 163.7,0 296.7,-205.3 297,-458.8 0.3,-253.6 -132.3,-459.4 -296.2,-459.6 0,0 -0.1,0 -0.2,0"
         style="fill:#33338e;fill-opacity:1;fill-rule:nonzero;stroke:none"
         id="path228" />
      <path
         d="m 21424,25194.9 c -1.2,-1048.4 733.4,-1899.2 1640.7,-1900.3 907.4,-1 1644,848.1 1645.2,1896.5 1.2,1048.5 -733.4,1899.3 -1640.8,1900.4 -907.3,1 -1643.9,-848.1 -1645.1,-1896.6"
         style="fill:#000072;fill-opacity:1;fill-rule:nonzero;stroke:none"
         id="path230" />
      <path
         d="m 22059.7,25027.6 c -0.4,-374.7 239.1,-678.8 534.9,-679.1 295.8,-0.3 536,303.2 536.5,677.9 0.4,374.8 -239.1,678.8 -534.9,679.2 -295.9,0.3 -536,-303.2 -536.5,-678"
         style="fill:#ffffff;fill-opacity:1;fill-rule:nonzero;stroke:none"
         id="path232" />
      <path
         d="m 23777.3,25119 c -0.1,0 -0.1,0 -0.2,0 -163.9,0.2 -296.5,206 -296.2,459.6 0.3,253.5 133.3,458.8 297,458.8 0.1,0 0.2,0 0.2,0 163.9,-0.2 296.5,-205.9 296.2,-459.5 -0.3,-253.5 -133.2,-458.9 -297,-458.9"
         style="fill:#33338e;fill-opacity:1;fill-rule:nonzero;stroke:none"
         id="path234" />
      <path
         d="m 23907.1,29089.8 c -414.3,-170 -786.7,-76.8 -1065.9,62.7 -320.5,160.3 -700.3,331.2 -882.2,37.5 -102.5,-165.4 30.8,-853.1 805.3,-890.8 744.8,-36.1 1111.4,497.2 1142.8,790.6"
         style="fill:#000072;fill-opacity:1;fill-rule:nonzero;stroke:none"
         id="path236" />
      <path
         d="m 15352.1,28928.5 c 195.7,725.7 967.4,1471.5 1686.1,964.8 299.4,-211.1 311.1,-676.9 64.3,-751.4 -376,-113.6 -798.3,251.5 -1750.4,-213.4"
         style="fill:#000072;fill-opacity:1;fill-rule:nonzero;stroke:none"
         id="path238" />
      <path
         d="m 19264.6,21403.2 c 189.3,589.7 879.6,1009.4 1464.4,702 75.6,-43.5 146.9,-94.8 199.5,-163.5 -166.5,32.7 -318.6,42.4 -464.2,31.1 -145.1,-10.4 -281,-44.2 -413.5,-94.1 -290.5,-112.2 -523.1,-308.8 -786.2,-475.5"
         style="fill:#000072;fill-opacity:1;fill-rule:nonzero;stroke:none"
         id="path240" />
      <path
         d="m 20454.4,24105 c -158.6,-444.3 -838.2,-694.8 -838.2,-694.8 0,0 -679.6,250.5 -838.2,694.8 -113.2,317.8 686.4,369.7 838.2,369.7 151.9,0 951.4,-51.9 838.2,-369.7"
         style="fill:#000072;fill-opacity:1;fill-rule:nonzero;stroke:none"
         id="path242" />
      <path
         d="m 19960.6,23582.1 c -106.4,-86.1 -268.5,-218 -344.3,-579.9 l -0.4,-1.7 -0.3,1.3 c -75.8,362.3 -238,494.2 -344.4,580.3 l 344.4,64.6 h 0.7 l 344.3,-64.6"
         style="fill:#000072;fill-opacity:1;fill-rule:nonzero;stroke:none"
         id="path244" />
      <path
         d="m 19616.3,23002.2 v -3.4 l -0.4,1.7 z"
         style="fill:#512717;fill-opacity:1;fill-rule:nonzero;stroke:none"
         id="path246" />
      <path
         d="m 19615.9,23000.5 -0.3,-1.4 v 2.7 z"
         style="fill:#512717;fill-opacity:1;fill-rule:nonzero;stroke:none"
         id="path248" />
      <path
         d="m 19617.3,24202.5 c -0.7,0 -1.1,0 -1.1,0 0,0 -0.4,0 -1,0 -18.8,0 -283.1,1.9 -346.5,110.1 -46.9,80.3 284.6,93.4 347.5,93.4 63,0 394.5,-13.1 347.5,-93.4 -63.4,-108.2 -327.7,-110.1 -346.4,-110.1"
         style="fill:#8080b9;fill-opacity:1;fill-rule:nonzero;stroke:none"
         id="path250" />
    </g>
  </g>
</svg>
